<svg xmlns="http://www.w3.org/2000/svg" fill="none" viewBox="0 0 24 24" stroke="black">
  <path stroke-linecap="round" stroke-linejoin="round" stroke-width="2"
    d="M12 15.5a3.5 3.5 0 100-7 3.5 3.5 0 000 7zM19.4 15a1.38 1.38 0 01.3 1.6l-1.2 2.1a1.38 1.38 0 01-1.7.6l-2.4-1a9.7 9.7 0 01-2.6.6l-.4 2.5a1.37 1.37 0 01-1.4 1.2h-2.4a1.38 1.38 0 01-1.4-1.2l-.4-2.5a9.73 9.73 0 01-2.6-.6l-2.4 1a1.37 1.37 0 01-1.7-.6l-1.2-2.1a1.37 1.37 0 01.3-1.6l2-1.6a10.1 10.1 0 010-2.2l-2-1.6a1.37 1.37 0 01-.3-1.6l1.2-2.1a1.37 1.37 0 011.7-.6l2.4 1a9.73 9.73 0 012.6-.6l.4-2.5A1.38 1.38 0 0110.5 2h2.4a1.37 1.37 0 011.4 1.2l.4 2.5a9.7 9.7 0 012.6.6l2.4-1a1.37 1.37 0 011.7.6l1.2 2.1a1.37 1.37 0 01-.3 1.6l-2 1.6c.1.7.1 1.4 0 2.2l2 1.6z" />
</svg>
